Coordinates
version=1
nRows=7
nColumns=40
inDegrees=yes

Units are S.I. units (second, meters, Newtons, ...)
If the header above contains a line with 'inDegrees', this indicates whether rotational values are in degrees (yes) or radians (no).

endheader
time	pelvis_tilt	pelvis_list	pelvis_rotation	pelvis_tx	pelvis_ty	pelvis_tz	hip_flexion_r	hip_adduction_r	hip_rotation_r	knee_angle_r	knee_angle_r_beta	ankle_angle_r	subtalar_angle_r	mtp_angle_r	hip_flexion_l	hip_adduction_l	hip_rotation_l	knee_angle_l	knee_angle_l_beta	ankle_angle_l	subtalar_angle_l	mtp_angle_l	lumbar_extension	lumbar_bending	lumbar_rotation	arm_flex_r	arm_add_r	arm_rot_r	elbow_flex_r	pro_sup_r	wrist_flex_r	wrist_dev_r	arm_flex_l	arm_add_l	arm_rot_l	elbow_flex_l	pro_sup_l	wrist_flex_l	wrist_dev_l
      4.17500000	      0.44026754	     -2.18433970	     -1.38233062	     -0.40272294	      0.80667302	     -1.03281153	     55.83334199	      1.25749326	      2.83642975	      6.29195060	      0.10981525	      1.64415379	      0.00000000	      0.00000000	     41.33707234	     -2.05179888	     -7.59501617	     68.07227192	      1.18808527	     16.94685930	      0.00000000	      0.00000000	    -20.79466758	     -0.30141265	      3.22089233	     89.83218761	    -12.50670895	     17.11850501	     28.48824155	     83.04906846	      0.00000000	      0.00000000	     89.83874335	    -18.08098081	     19.30808498	     37.81479320	     84.54138005	      0.00000000	      0.00000000
      4.18000000	      0.36209440	     -2.16830472	     -1.41822211	     -0.40293793	      0.80591096	     -1.03271404	     55.95884386	      1.29109978	      2.81044973	      6.34088242	      0.11066928	      1.59157471	      0.00000000	      0.00000000	     41.51599883	     -2.12696881	     -7.69888899	     68.23626886	      1.19094756	     17.01436724	      0.00000000	      0.00000000	    -20.73169239	     -0.32957484	      3.21947766	     89.83156734	    -12.50110359	     17.18921389	     28.50704330	     82.93546012	      0.00000000	      0.00000000	     89.84061764	    -18.09960768	     19.27963363	     37.84877310	     84.55889306	      0.00000000	      0.00000000
      4.18500000	      0.34404682	     -2.15660093	     -1.39144961	     -0.40310208	      0.80526331	     -1.03269885	     55.99460495	      1.27276670	      2.74057666	      6.33946808	      0.11064459	      1.56211498	      0.00000000	      0.00000000	     41.62503477	     -2.14659139	     -7.74415442	     68.38142692	      1.19348105	     17.07435464	      0.00000000	      0.00000000	    -20.74591316	     -0.32750326	      3.13780723	     89.83318387	    -12.47890253	     17.37632589	     28.53753727	     82.60879292	      0.00000000	      0.00000000	     89.84117506	    -18.20936453	     19.52218365	     37.93431201	     84.15406282	      0.00000000	      0.00000000
      4.19000000	      0.38023950	     -2.17217141	     -1.33990579	     -0.40323622	      0.80472929	     -1.03274025	     55.81144290	      1.24901902	      2.89728437	      5.99469145	      0.10462710	      1.29437179	      0.00000000	      0.00000000	     41.69145914	     -2.20854573	     -7.82246483	     68.56058968	      1.19660803	     16.99559353	      0.00000000	      0.00000000	    -20.80784662	     -0.28912860	      3.11793755	     89.83169106	    -12.44736344	     17.88210436	     28.61796870	     77.46342704	      0.00000000	      0.00000000	     89.84182143	    -18.19873979	     20.23289561	     38.03821491	     79.03202136	      0.00000000	      0.00000000
      4.19500000	      0.40646771	     -2.09411657	     -1.31026382	     -0.40366036	      0.80416239	     -1.03275285	     55.97108336	      1.18420750	      2.71715970	      6.33821616	      0.11062274	      1.37641956	      0.00000000	      0.00000000	     41.74176534	     -2.10465289	     -7.80031428	     68.63280585	      1.19786844	     17.12848599	      0.00000000	      0.00000000	    -20.87467834	     -0.36284208	      3.05490275	     89.83444898	    -12.41478687	     16.85511951	     28.52324976	     83.19678592	      0.00000000	      0.00000000	     89.84236944	    -18.10450615	     19.25956216	     37.96437793	     84.47212178	      0.00000000	      0.00000000
      4.20000000	      0.34571674	     -2.00473008	     -1.32660057	     -0.40366251	      0.80350891	     -1.03279018	     56.05843154	      1.11815186	      2.83987393	      6.36262788	      0.11104881	      1.40397579	      0.00000000	      0.00000000	     41.87370955	     -2.05704744	     -7.90175302	     68.74902558	      1.19989685	     17.23623393	      0.00000000	      0.00000000	    -20.81251786	     -0.45636408	      3.04711468	     89.83354891	    -12.44715325	     16.92674241	     28.50966797	     82.97789068	      0.00000000	      0.00000000	     89.84159716	    -18.08440802	     19.20493591	     37.96010489	     84.58573370	      0.00000000	      0.00000000
      4.20500000	      0.30449958	     -1.98554408	     -1.26247755	     -0.40382334	      0.80282117	     -1.03288696	     56.11516161	      1.07008627	      2.84962335	      6.36584969	      0.11110504	      1.53032505	      0.00000000	      0.00000000	     42.01198791	     -2.02106022	     -7.88781784	     68.89020766	      1.20236095	     17.20993831	      0.00000000	      0.00000000	    -20.77652786	     -0.45359992	      2.99199515	     89.83421716	    -12.44944100	     16.85317450	     28.49262704	     82.92032674	      0.00000000	      0.00000000	     89.84227687	    -18.05299510	     19.21015201	     37.96369398	     84.61951021	      0.00000000	      0.00000000
